<svg xmlns="http://www.w3.org/2000/svg" viewBox="0 0 1600 1000" fill="none">
  <rect width="1600" height="1000" fill="#FFFFFF" />
  <!-- Window chrome -->
  <rect x="0" y="0" width="1600" height="72" fill="#F4F4F5" />
  <circle cx="40" cy="36" r="10" fill="#E4E4E7" />
  <circle cx="74" cy="36" r="10" fill="#E4E4E7" />
  <circle cx="108" cy="36" r="10" fill="#E4E4E7" />
  <rect x="560" y="22" width="480" height="28" rx="14" fill="#E4E4E7" />
  <!-- Sidebar -->
  <rect x="0" y="72" width="300" height="928" fill="#FAFAFA" />
  <rect x="32" y="120" width="180" height="24" rx="8" fill="#2563EB" />
  <rect x="32" y="176" width="220" height="18" rx="9" fill="#E4E4E7" />
  <rect x="32" y="216" width="200" height="18" rx="9" fill="#E4E4E7" />
  <rect x="32" y="256" width="230" height="18" rx="9" fill="#E4E4E7" />
  <rect x="32" y="296" width="180" height="18" rx="9" fill="#E4E4E7" />
  <!-- Main heading -->
  <rect x="360" y="128" width="420" height="34" rx="10" fill="#18181B" />
  <rect x="360" y="184" width="640" height="18" rx="9" fill="#D4D4D8" />
  <!-- KPI cards -->
  <rect x="360" y="252" width="360" height="180" rx="20" fill="#F4F4F5" />
  <rect x="392" y="288" width="120" height="16" rx="8" fill="#A1A1AA" />
  <rect x="392" y="322" width="200" height="40" rx="10" fill="#2563EB" />
  <rect x="752" y="252" width="360" height="180" rx="20" fill="#F4F4F5" />
  <rect x="784" y="288" width="120" height="16" rx="8" fill="#A1A1AA" />
  <rect x="784" y="322" width="200" height="40" rx="10" fill="#0EA5E9" />
  <rect x="1144" y="252" width="360" height="180" rx="20" fill="#F4F4F5" />
  <rect x="1176" y="288" width="120" height="16" rx="8" fill="#A1A1AA" />
  <rect x="1176" y="322" width="200" height="40" rx="10" fill="#8B5CF6" />
  <!-- Chart panel -->
  <rect x="360" y="472" width="1144" height="440" rx="20" fill="#FAFAFA" stroke="#E4E4E7" stroke-width="2" />
  <polyline points="420,840 560,760 700,790 840,640 980,690 1120,540 1260,600 1440,470" fill="none" stroke="#2563EB" stroke-width="6" stroke-linecap="round" stroke-linejoin="round" />
  <polyline points="420,870 560,850 700,820 840,830 980,780 1120,800 1260,740 1440,720" fill="none" stroke="#0EA5E9" stroke-width="6" stroke-linecap="round" stroke-linejoin="round" />
</svg>
